# xmcd
#
# Track frame offsets:
#	150
#	15337
#	29646
#	41199
#	55576
#	66068
#	80021
#	95212
#	108792
#	120895
#	133560
#	147060
#	161164
#	176999
#
# Disc length: 2549 seconds
#
# Revision: 0
# Processed by: cddbd v1.5.2PL0 Copyright (c) Steve Scherf et al.
# Submitted via: EasyCDDAExtractor 16.0.8.2
#
DISCID=bb09f30e
DTITLE=Συλλογικός δίσκος - Θέλω τα ώπα μου! 3
DYEAR=2014
DGENRE=Λαϊκή
TTITLE0=Γεωργακοπούλου Ιωάννα-Κυριαζής Γιάννης - Δημητρούλα μου γειά σου [Παν.
TTITLE0=Τούντας]
TTITLE1=Περπινιάδης Βαγγέλης - Όλος ο κόσμος με μισεί [Μπ. Μπακάλης]
TTITLE2=Κανακάρης Θεόδωρος - Στης Λαρίσης το ποτάμι [Γ. Μητσάκης]
TTITLE3=Σακελλαρίου Ρίτα - Τό 'πες και τό 'κανες [Δημ. Γκούτης-Στ. Μαριδάκης]
TTITLE4=Δούκισσα-Ζαμπέτας Γιώργος - Ο μπουφετζής [Γ. Παπαϊωάννου-Δ. Σέμσης-Γ. 
TTITLE4=Μπάτης]
TTITLE5=Καναρίδης Μανώλης - Ο πιο καλός ο μαθητής [Γ. Ζαμπέτας-Χαρ. Βασιλειάδη
TTITLE5=ς]
TTITLE6=Τσαουσάκης Πρόδρομος - Μικρός αρραβωνιάστηκα [Μ. Βαμακάρης]
TTITLE7=Ζαμπέτας Γιώργος - Στο Λευκό Πύργο [Γ. Ζαμπέτας-Ξ. Φιλέρης]
TTITLE8=Μοσχολιού Βίκυ - Έτσι είν' η ζωή [Δ. Μούτσης-Γ. Λογοθέτης]
TTITLE9=Ζαμπέτας Γιώργος-Γκίκα Βούλα - Οι θαλασσινοί [Γ. Ζαμπέτας-Στ. Γεράνης]
TTITLE10=Τζανετής Πάνος - Τι σού 'κανα και με εγκατέλειψες [Γ. Ζαμπέτας-Κ. Μάν
TTITLE10=εσης]
TTITLE11=Βοσκόπουλος Τόλης - Ό,τι αρχίζει ωραίο [Σπ. Σκορδίλης]
TTITLE12=Σακελλαρίου Ρίτα - Ένα τραγούδι πες μου ακόμα [Τάκης Μουσαφίρης]
TTITLE13=Ζαμπέτας Γιώργος - Το φανταράκι [Σπ. Πιπεράκης-Κώστας Φέρρης]
EXTD=
EXTT0=
EXTT1=
EXTT2=
EXTT3=
EXTT4=
EXTT5=
EXTT6=
EXTT7=
EXTT8=
EXTT9=
EXTT10=
EXTT11=
EXTT12=
EXTT13=
PLAYORDER=
